<?xml version="1.0" encoding="utf-8"?>
<!-- Generator: Adobe Illustrator 24.0.1, SVG Export Plug-In . SVG Version: 6.00 Build 0)  -->
<svg version="1.1" xmlns="http://www.w3.org/2000/svg" xmlns:xlink="http://www.w3.org/1999/xlink" x="0px" y="0px"
	 viewBox="0 0 1000 1000" style="enable-background:new 0 0 1000 1000;" xml:space="preserve">
<style type="text/css">
	.st0{display:none;}
	.st1{display:inline;fill:#262223;}
	.st2{fill:#B79D8B;}
	.st3{fill:#DDC6B6;}
</style>
<g id="Camada_2" class="st0">
	<rect class="st1" width="1000" height="1000"/>
</g>
<g id="Camada_1">
	<path class="st2" d="M722.47,510.25c-61.49-40.18-134.98-63.55-213.92-63.55c-77.58,0-149.88,22.57-210.71,61.49
		c46.96-66.21,124.24-109.43,211.6-109.43C597.7,398.76,675.65,442.86,722.47,510.25z"/>
	<path class="st3" d="M271.42,294.72c69.02,45.11,151.52,71.34,240.14,71.34c87.08,0,168.24-25.33,236.53-69.02
		c-52.72,74.33-139.46,122.84-237.52,122.84C411.48,419.87,323.98,370.36,271.42,294.72z"/>
	<path class="st3" d="M454.36,306.05c16.06,10.5,35.26,16.6,55.88,16.6c20.26,0,39.15-5.9,55.04-16.06
		c-12.27,17.3-32.45,28.59-55.27,28.59C486.95,335.18,466.59,323.66,454.36,306.05z"/>
	<path class="st2" d="M564.66,505.61c-16.06-8.95-35.26-14.16-55.88-14.16c-20.26,0-39.15,5.03-55.04,13.7
		c12.27-14.75,32.45-24.38,55.27-24.38C532.07,480.77,552.43,490.6,564.66,505.61z"/>
</g>
<g id="Camada_3">
	<path class="st3" d="M311.99,705.4c-16.51,0-30.59-5.87-42.23-17.62c-11.75-11.64-17.62-25.72-17.62-42.23v-22.39
		c0-17.04,5.34-31.28,16.04-42.71c10.69-11.43,24.03-17.15,40.01-17.15h0.48c15.98,0,29.32,5.72,40.01,17.15
		c10.69,11.43,16.04,25.67,16.04,42.71v11.27c0,2.22-0.79,4.13-2.38,5.72c-1.59,1.69-3.55,2.54-5.87,2.54h-87.8v2.86
		c0,11.96,4.23,22.18,12.7,30.64c8.47,8.47,18.68,12.7,30.64,12.7h0.48c14.5,0,26.09-5.88,34.77-17.62
		c1.37-1.91,3.23-3.02,5.56-3.33c2.22-0.32,4.29,0.21,6.19,1.59c1.8,1.38,2.86,3.18,3.18,5.4c0.32,2.33-0.21,4.39-1.59,6.19
		c-5.72,7.73-12.76,13.71-21.12,17.94c-8.36,4.23-17.36,6.35-26.99,6.35H311.99z M268.65,626.01h79.54v-2.86
		c0-12.49-3.71-22.81-11.11-30.96c-7.52-8.15-16.99-12.23-28.42-12.23h-0.48c-11.43,0-20.85,4.08-28.26,12.23
		c-7.52,8.15-11.27,18.47-11.27,30.96V626.01z"/>
	<path class="st3" d="M409.86,705.4c-2.22,0-4.18-0.79-5.87-2.38c-1.59-1.69-2.38-3.65-2.38-5.87v-76.69
		c0-16.3,5.34-29.9,16.04-40.8c10.8-10.9,24.19-16.35,40.17-16.35h0.48c10.27,0,19.63,2.38,28.1,7.14
		c8.26,4.76,14.87,11.22,19.85,19.37c4.97-8.15,11.59-14.61,19.85-19.37c8.47-4.76,17.83-7.14,28.1-7.14h0.48
		c15.98,0,29.37,5.45,40.17,16.35c10.69,10.9,16.04,24.5,16.04,40.8v76.69c0,2.22-0.79,4.18-2.38,5.87
		c-1.69,1.59-3.65,2.38-5.88,2.38c-2.33,0-4.29-0.79-5.87-2.38c-1.59-1.69-2.38-3.65-2.38-5.87v-76.69
		c0-11.54-3.81-21.17-11.43-28.9c-7.52-7.83-16.94-11.75-28.26-11.75h-0.48c-11.33,0-20.75,3.92-28.26,11.75
		c-7.62,7.73-11.43,17.36-11.43,28.9v76.69c0,2.22-0.79,4.18-2.38,5.87c-1.59,1.59-3.55,2.38-5.88,2.38c-2.33,0-4.29-0.79-5.87-2.38
		c-1.59-1.69-2.38-3.65-2.38-5.87v-76.69c0-11.54-3.81-21.17-11.43-28.9c-7.52-7.83-16.94-11.75-28.26-11.75h-0.48
		c-11.33,0-20.75,3.92-28.26,11.75c-7.62,7.73-11.43,17.36-11.43,28.9v76.69c0,2.22-0.79,4.18-2.38,5.87
		C414.14,704.6,412.18,705.4,409.86,705.4z"/>
	<path class="st3" d="M707.61,705.4c-16.51,0-30.59-5.87-42.23-17.62c-11.75-11.64-17.62-25.72-17.62-42.23v-22.23
		c0-16.51,5.87-30.59,17.62-42.23c11.64-11.75,25.72-17.62,42.23-17.62h0.48c16.51,0,30.59,5.87,42.23,17.62
		c11.75,11.64,17.62,25.72,17.62,42.23v22.23c0,16.51-5.87,30.59-17.62,42.23c-11.64,11.75-25.72,17.62-42.23,17.62H707.61z
		 M664.27,645.54c0,11.96,87.16,11.96,87.16,0v-22.23c0-11.96-4.23-22.17-12.7-30.64c-8.47-8.47-18.68-12.7-30.64-12.7h-0.48
		c-11.96,0-22.18,4.23-30.64,12.7c-8.47,8.47-12.7,18.68-12.7,30.64V645.54z"/>
	<circle class="st3" cx="707.5" cy="617.5" r="9.5"/>
</g>
</svg>
