<?xml version="1.0" encoding="utf-8"?>
<!-- Generator: Adobe Illustrator 24.0.1, SVG Export Plug-In . SVG Version: 6.00 Build 0)  -->
<svg version="1.1" xmlns="http://www.w3.org/2000/svg" xmlns:xlink="http://www.w3.org/1999/xlink" x="0px" y="0px"
	 viewBox="0 0 1000 1000" style="enable-background:new 0 0 1000 1000;" xml:space="preserve">
<style type="text/css">
	.st0{display:none;}
	.st1{display:inline;fill:#262223;}
	.st2{fill:#B79D8B;}
	.st3{fill:#DDC6B6;}
	.st4{display:inline;fill:#DDC6B6;}
</style>
<g id="Camada_2" class="st0">
	<rect class="st1" width="1000" height="1000"/>
</g>
<g id="Camada_1">
	<path class="st2" d="M906.97,700.35C789.24,623.42,648.54,578.68,497.4,578.68c-148.52,0-286.94,43.21-403.41,117.72
		C183.91,569.64,331.85,486.9,499.1,486.9C668.09,486.9,817.32,571.34,906.97,700.35z"/>
	<path class="st3" d="M43.42,287.72C175.56,374.08,333.51,424.3,503.16,424.3c166.72,0,322.1-48.5,452.84-132.15
		c-100.93,142.3-267,235.18-454.75,235.18C311.56,527.33,144.04,432.54,43.42,287.72z"/>
	<path class="st3" d="M393.66,309.41c30.75,20.1,67.51,31.78,106.99,31.78c38.8,0,74.96-11.29,105.38-30.75
		c-23.49,33.11-62.13,54.73-105.82,54.73C456.07,365.17,417.08,343.11,393.66,309.41z"/>
	<path class="st2" d="M604.84,691.47c-30.75-17.14-67.51-27.11-106.99-27.11c-38.8,0-74.96,9.63-105.38,26.23
		c23.49-28.25,62.13-46.68,105.82-46.68C542.44,643.91,581.43,662.72,604.84,691.47z"/>
</g>
<g id="Camada_3" class="st0">
	<path class="st4" d="M311.99,705.4c-16.51,0-30.59-5.87-42.23-17.62c-11.75-11.64-17.62-25.72-17.62-42.23v-22.39
		c0-17.04,5.34-31.28,16.04-42.71c10.69-11.43,24.03-17.15,40.01-17.15h0.48c15.98,0,29.32,5.72,40.01,17.15
		c10.69,11.43,16.04,25.67,16.04,42.71v11.27c0,2.22-0.79,4.13-2.38,5.72c-1.59,1.69-3.55,2.54-5.87,2.54h-87.8v2.86
		c0,11.96,4.23,22.18,12.7,30.64c8.47,8.47,18.68,12.7,30.64,12.7h0.48c14.5,0,26.09-5.88,34.77-17.62
		c1.37-1.91,3.23-3.02,5.56-3.33c2.22-0.32,4.29,0.21,6.19,1.59c1.8,1.38,2.86,3.18,3.18,5.4c0.32,2.33-0.21,4.39-1.59,6.19
		c-5.72,7.73-12.76,13.71-21.12,17.94c-8.36,4.23-17.36,6.35-26.99,6.35H311.99z M268.65,626.01h79.54v-2.86
		c0-12.49-3.71-22.81-11.11-30.96c-7.52-8.15-16.99-12.23-28.42-12.23h-0.48c-11.43,0-20.85,4.08-28.26,12.23
		c-7.52,8.15-11.27,18.47-11.27,30.96V626.01z"/>
	<path class="st4" d="M409.86,705.4c-2.22,0-4.18-0.79-5.87-2.38c-1.59-1.69-2.38-3.65-2.38-5.87v-76.69
		c0-16.3,5.34-29.9,16.04-40.8c10.8-10.9,24.19-16.35,40.17-16.35h0.48c10.27,0,19.63,2.38,28.1,7.14
		c8.26,4.76,14.87,11.22,19.85,19.37c4.97-8.15,11.59-14.61,19.85-19.37c8.47-4.76,17.83-7.14,28.1-7.14h0.48
		c15.98,0,29.37,5.45,40.17,16.35c10.69,10.9,16.04,24.5,16.04,40.8v76.69c0,2.22-0.79,4.18-2.38,5.87
		c-1.69,1.59-3.65,2.38-5.88,2.38c-2.33,0-4.29-0.79-5.87-2.38c-1.59-1.69-2.38-3.65-2.38-5.87v-76.69
		c0-11.54-3.81-21.17-11.43-28.9c-7.52-7.83-16.94-11.75-28.26-11.75h-0.48c-11.33,0-20.75,3.92-28.26,11.75
		c-7.62,7.73-11.43,17.36-11.43,28.9v76.69c0,2.22-0.79,4.18-2.38,5.87c-1.59,1.59-3.55,2.38-5.88,2.38c-2.33,0-4.29-0.79-5.87-2.38
		c-1.59-1.69-2.38-3.65-2.38-5.87v-76.69c0-11.54-3.81-21.17-11.43-28.9c-7.52-7.83-16.94-11.75-28.26-11.75h-0.48
		c-11.33,0-20.75,3.92-28.26,11.75c-7.62,7.73-11.43,17.36-11.43,28.9v76.69c0,2.22-0.79,4.18-2.38,5.87
		C414.14,704.6,412.18,705.4,409.86,705.4z"/>
	<path class="st4" d="M707.61,705.4c-16.51,0-30.59-5.87-42.23-17.62c-11.75-11.64-17.62-25.72-17.62-42.23v-22.23
		c0-16.51,5.87-30.59,17.62-42.23c11.64-11.75,25.72-17.62,42.23-17.62h0.48c16.51,0,30.59,5.87,42.23,17.62
		c11.75,11.64,17.62,25.72,17.62,42.23v22.23c0,16.51-5.87,30.59-17.62,42.23c-11.64,11.75-25.72,17.62-42.23,17.62H707.61z
		 M664.27,645.54c0,11.96,87.16,11.96,87.16,0v-22.23c0-11.96-4.23-22.17-12.7-30.64c-8.47-8.47-18.68-12.7-30.64-12.7h-0.48
		c-11.96,0-22.18,4.23-30.64,12.7c-8.47,8.47-12.7,18.68-12.7,30.64V645.54z"/>
	<circle class="st4" cx="707.5" cy="617.5" r="9.5"/>
</g>
</svg>
